<mxfile host="app.diagrams.net" modified="2023-08-27T10:11:18.282Z" agent="Mozilla/5.0 (X11; Linux x86_64) AppleWebKit/537.36 (KHTML, like Gecko) Chrome/115.0.0.0 Safari/537.36" etag="7QPZ3BQvjL7OZjF59iE-" version="21.6.9" type="github">
  <diagram name="Page-1" id="MsKLmUilXUobWIuIifkx">
    <mxGraphModel dx="1425" dy="330" grid="1" gridSize="10" guides="1" tooltips="1" connect="1" arrows="1" fold="1" page="1" pageScale="1" pageWidth="827" pageHeight="1169" math="0" shadow="0">
      <root>
        <mxCell id="0" />
        <mxCell id="1" parent="0" />
        <mxCell id="Fr31JLENJhVwNltYiqaI-16" value="" style="rounded=0;whiteSpace=wrap;html=1;" vertex="1" parent="1">
          <mxGeometry x="10" y="10" width="810" height="50" as="geometry" />
        </mxCell>
        <mxCell id="Fr31JLENJhVwNltYiqaI-18" value="Subject :" style="text;html=1;strokeColor=none;fillColor=none;align=center;verticalAlign=middle;whiteSpace=wrap;rounded=0;" vertex="1" parent="1">
          <mxGeometry x="10" y="20" width="60" height="30" as="geometry" />
        </mxCell>
        <mxCell id="Fr31JLENJhVwNltYiqaI-19" value="" style="endArrow=none;html=1;rounded=0;" edge="1" parent="1" target="Fr31JLENJhVwNltYiqaI-16">
          <mxGeometry width="50" height="50" relative="1" as="geometry">
            <mxPoint x="180" y="10" as="sourcePoint" />
            <mxPoint x="230" y="-40" as="targetPoint" />
          </mxGeometry>
        </mxCell>
        <mxCell id="Fr31JLENJhVwNltYiqaI-21" value="&lt;br&gt;" style="text;strokeColor=none;align=center;fillColor=none;html=1;verticalAlign=middle;whiteSpace=wrap;rounded=0;" vertex="1" parent="1">
          <mxGeometry x="-110" y="250" width="60" height="30" as="geometry" />
        </mxCell>
        <mxCell id="Fr31JLENJhVwNltYiqaI-24" value="" style="endArrow=none;html=1;rounded=0;" edge="1" parent="1">
          <mxGeometry width="50" height="50" relative="1" as="geometry">
            <mxPoint x="70" y="40" as="sourcePoint" />
            <mxPoint x="140" y="40" as="targetPoint" />
          </mxGeometry>
        </mxCell>
      </root>
    </mxGraphModel>
  </diagram>
</mxfile>
